<svg version="1.1" id="Layer_1" xmlns="http://www.w3.org/2000/svg" xmlns:xlink="http://www.w3.org/1999/xlink" x="0px" y="0px" viewBox="256 256 512 512" enable-background="new 0 0 1024 1024" xml:space="preserve" stroke="currentColor">
<path fill="#000000" opacity="1.000000" stroke="none" 
	d="
M542.082397,258.658508 
	C568.324707,260.946228 592.952271,267.838257 616.677979,277.874603 
	C649.164978,291.617126 677.763550,311.181030 701.905762,336.974243 
	C733.164490,370.370514 754.832581,409.003235 764.817627,453.883545 
	C765.286926,455.992737 765.645203,458.116852 765.145142,460.364136 
	C762.856934,460.857452 761.875122,458.923584 760.654541,457.831116 
	C750.581604,448.815277 740.074219,440.367676 728.768799,432.939514 
	C727.461304,432.080444 726.487976,431.032288 725.937561,429.572144 
	C715.535095,401.976715 697.020569,380.358978 675.223145,361.264038 
	C643.903564,333.827515 607.932617,314.870819 567.253357,306.297607 
	C496.422943,291.369934 432.631134,307.160065 377.485382,354.324890 
	C339.304169,386.980347 316.209900,428.836121 306.725555,478.121460 
	C305.128723,486.419373 304.595032,494.922333 303.586914,503.332550 
	C303.445374,504.513580 303.554504,505.663147 304.714783,506.821503 
	C307.084320,506.034973 308.426025,503.861969 310.156281,502.198212 
	C353.411285,460.605499 402.195557,428.147339 460.450226,411.405212 
	C484.632629,404.455322 509.337219,400.621246 534.456482,402.849579 
	C580.470581,406.931519 621.668457,422.496887 654.354126,456.533234 
	C664.631348,467.235199 672.685852,479.402496 675.744873,494.282410 
	C676.516296,498.035126 676.876892,501.826355 676.535461,505.681610 
	C676.382507,507.408844 675.697815,509.323547 677.807861,511.315643 
	C682.587280,506.561554 684.896179,500.530640 686.558777,494.434662 
	C692.792847,471.576233 686.545471,451.142059 672.770386,432.904053 
	C655.481995,410.014404 632.062744,395.307648 605.481323,385.433807 
	C556.087341,367.086212 506.205292,367.256165 455.950653,381.755280 
	C416.301727,393.194519 380.952362,412.626556 349.059998,438.608917 
	C344.592804,442.248291 340.060150,445.807281 335.237335,449.659454 
	C334.082916,446.522552 335.917603,444.677246 337.084015,442.956421 
	C363.983521,403.269745 398.851624,372.870789 442.738556,353.234863 
	C474.316223,339.106323 507.515106,331.633423 542.114868,332.158722 
	C583.509827,332.787140 622.181702,343.526947 656.186157,367.771179 
	C682.730835,386.696747 703.961060,410.236420 714.378357,441.998047 
	C715.312622,444.846466 717.498108,446.165466 719.704834,447.652954 
	C740.818054,461.884369 759.127502,478.891785 772.127014,501.066284 
	C783.005676,519.623169 789.006897,539.663452 787.122375,561.192444 
	C784.294922,593.495483 770.049255,620.325256 745.670837,641.735291 
	C740.914246,645.912781 736.170044,650.112610 730.654480,653.308838 
	C728.954529,654.293823 727.341492,655.504395 724.925720,655.556458 
	C724.271301,651.010681 724.657593,646.565430 723.806885,642.170654 
	C719.318298,618.982910 696.724976,606.460876 674.759338,614.998962 
	C662.354980,619.820557 652.963440,628.464966 644.720886,638.389771 
	C632.448120,653.167114 624.955383,670.286987 621.582520,689.197205 
	C621.354858,690.473572 620.966125,691.822998 622.316956,693.282166 
	C625.337524,692.780945 627.886841,690.890015 630.503235,689.219910 
	C645.978333,679.342224 660.465149,668.102905 674.774902,656.649536 
	C678.407898,653.741638 680.585999,652.989929 683.955261,657.229309 
	C690.234558,665.130188 698.798157,669.924683 708.403687,672.090271 
	C709.430542,675.028809 707.470764,676.241028 706.229370,677.648438 
	C670.270874,718.413208 625.162109,743.408142 572.426392,755.288208 
	C535.113647,763.693787 497.811981,763.283386 460.489075,755.412109 
	C454.299438,754.106689 454.265717,754.087097 455.587067,747.921692 
	C464.274902,707.383240 485.559479,674.236633 515.569092,646.334534 
	C531.484070,631.537170 549.061523,618.896545 567.759644,607.823120 
	C568.756165,607.232971 569.817139,606.734619 570.301575,605.551636 
	C562.134521,602.088989 499.029633,630.133423 470.107147,650.269409 
	C439.068359,671.878845 415.344910,700.065857 397.286530,733.488464 
	C383.021362,725.539795 369.906342,717.154053 357.548462,707.512268 
	C340.910553,694.531250 326.454102,679.351624 312.221649,663.892578 
	C309.058258,660.456604 309.700836,658.459412 312.969025,655.436584 
	C347.877594,623.148865 389.190948,602.838745 434.448273,589.677185 
	C464.853973,580.834595 495.833374,574.758240 527.053040,569.746033 
	C528.506836,569.512634 529.931946,569.100830 532.053711,568.615967 
	C528.130371,565.777710 524.040466,566.093262 520.355835,565.631287 
	C451.584381,557.009888 385.091736,565.185181 321.780334,594.095947 
	C287.610443,609.699402 258.110779,631.544556 236.648148,663.059998 
	C234.614624,666.046021 232.739487,669.139771 230.683517,672.351074 
	C228.185944,670.836487 228.909988,668.658569 228.860336,666.851807 
	C227.970810,634.491821 235.931671,604.217529 250.496567,575.513245 
	C251.476700,573.581604 252.139450,571.357910 253.533295,569.788208 
	C263.467133,558.600830 261.283325,545.568115 260.249512,532.292542 
	C258.644257,511.678864 259.853363,491.150452 263.160461,470.613586 
	C269.772491,429.553040 286.441833,392.903687 310.774048,359.692352 
	C336.305389,324.844421 369.330597,298.958893 408.706116,281.118927 
	C434.404022,269.475983 461.417603,262.557587 489.254059,259.023956 
	C506.613831,256.820251 524.149963,256.975800 542.082397,258.658508 
M684.083313,578.988403 
	C705.835388,582.109192 724.446472,590.040161 734.019043,611.734436 
	C770.499268,584.680359 761.280212,508.676086 718.806030,487.226501 
	C718.585022,487.837128 718.314697,488.403687 718.173401,489.000763 
	C713.382812,509.249542 702.129333,525.748657 688.099304,540.590088 
	C673.184326,556.367737 655.099670,567.972839 636.769592,579.235474 
	C635.489136,580.022217 633.660400,580.288391 633.300964,582.763672 
	C641.896301,581.671997 649.890320,579.039856 658.181885,578.813782 
	C666.502075,578.586914 674.834717,578.819336 684.083313,578.988403 
M536.561035,539.863770 
	C538.382019,539.693542 540.232361,539.675232 542.019714,539.330627 
	C579.447693,532.114746 603.467896,499.810089 599.625244,461.972382 
	C598.901367,454.844086 596.493591,449.289520 588.667297,447.312347 
	C583.662048,446.047852 579.167114,442.915192 572.293518,442.382507 
	C580.808716,460.884674 582.579956,478.499786 570.992859,495.214081 
	C559.670166,511.547119 543.927917,519.413208 523.987061,518.194580 
	C509.764313,517.325378 498.013916,510.971436 488.963837,500.232025 
	C472.568298,480.776001 474.135742,459.831512 486.540070,437.335693 
	C476.669464,438.411713 468.920807,440.171387 461.880066,444.433075 
	C461.036682,444.943542 460.671326,446.386169 460.272186,447.466187 
	C456.361908,458.046783 454.672241,468.775452 456.070404,480.189453 
	C460.511322,516.443054 496.219635,544.887024 536.561035,539.863770 
M528.348877,449.314514 
	C524.070374,444.011200 518.842896,440.824951 511.835449,442.905029 
	C505.631775,444.746582 501.519440,448.940796 500.328583,455.429382 
	C499.148193,461.860870 502.510468,468.209717 508.330902,471.227142 
	C514.151550,474.244659 521.465576,473.015594 526.258911,468.214539 
	C531.346924,463.118347 532.188477,456.907166 528.348877,449.314514 
z"/>
</svg>